<?xml version="1.0" encoding="UTF-8"?>
<svg width="230px" height="57px" viewBox="0 0 230 57" version="1.1" xmlns="http://www.w3.org/2000/svg" xmlns:xlink="http://www.w3.org/1999/xlink">
    <g id="Page-1" stroke="none" stroke-width="1" fill="none" fill-rule="evenodd">
        <g id="imagezy-logo-copy" transform="translate(-98.000000, -51.000000)" stroke="#C8C8C8">
            <path d="M98.92,67.776 L102.696,67.776 L112.808,66.24 L112.808,92.736 L116.584,92.736 L116.584,96 L98.92,96 L98.92,92.736 L102.696,92.736 L102.696,70.976 L98.92,70.976 L98.92,67.776 Z M102.696,57.792 C102.696,55.999991 103.079996,54.666671 103.848,53.792 C104.616004,52.917329 105.917324,52.48 107.752,52.48 C109.67201,52.48 110.994663,52.917329 111.72,53.792 C112.445337,54.666671 112.808,55.999991 112.808,57.792 C112.808,59.6266758 112.413337,60.9599958 111.624,61.792 C110.834663,62.6240042 109.544009,63.04 107.752,63.04 C105.917324,63.04 104.616004,62.6240042 103.848,61.792 C103.079996,60.9599958 102.696,59.6266758 102.696,57.792 Z M118.284,68.416 L122.06,68.416 L131.724,66.56 L131.724,70.848 C131.894668,70.5919987 132.203998,70.2293357 132.652,69.76 C133.100002,69.2906643 133.686663,68.8426688 134.412,68.416 C135.137337,67.9893312 136.022661,67.6160016 137.068,67.296 C138.113339,66.9759984 139.339993,66.816 140.748,66.816 C141.558671,66.816 142.390662,66.8799994 143.244,67.008 C144.097338,67.1360006 144.89733,67.3493318 145.644,67.648 C146.39067,67.9466682 147.062664,68.3519974 147.66,68.864 C148.257336,69.3760026 148.683999,70.0373293 148.94,70.848 C149.068001,70.6773325 149.323998,70.3680022 149.708,69.92 C150.092002,69.4719978 150.635996,69.0133357 151.34,68.544 C152.044004,68.0746643 152.929328,67.669335 153.996,67.328 C155.062672,66.986665 156.342659,66.816 157.836,66.816 C158.817338,66.816 159.809328,66.9013325 160.812,67.072 C161.814672,67.2426675 162.731996,67.5519978 163.564,68 C164.396004,68.4480022 165.067997,69.0559962 165.58,69.824 C166.092003,70.5920038 166.348,71.5946605 166.348,72.832 L166.348,92.736 L170.124,92.736 L170.124,96 L156.236,96 L156.236,70.784 L156.044,70.72 C155.958666,70.6773331 155.830668,70.6453334 155.66,70.624 C155.489332,70.6026666 155.233335,70.592 154.892,70.592 C154.166663,70.592 153.49467,70.7839981 152.876,71.168 C152.25733,71.5520019 151.702669,71.9893309 151.212,72.48 C150.721331,72.9706691 150.305335,73.4613309 149.964,73.952 C149.622665,74.4426691 149.388001,74.7946656 149.26,75.008 L149.26,92.736 L153.036,92.736 L153.036,96 L139.148,96 L139.148,70.784 L138.956,70.72 C138.870666,70.6773331 138.742668,70.6453334 138.572,70.624 C138.401332,70.6026666 138.145335,70.592 137.804,70.592 C137.078663,70.592 136.40667,70.7839981 135.788,71.168 C135.16933,71.5520019 134.614669,71.9893309 134.124,72.48 C133.633331,72.9706691 133.217335,73.4613309 132.876,73.952 C132.534665,74.4426691 132.300001,74.7946656 132.172,75.008 L132.172,92.736 L135.948,92.736 L135.948,96 L118.284,96 L118.284,92.736 L122.06,92.736 L122.06,71.616 L118.284,71.616 L118.284,68.416 Z M198.256,92.8 L199.088,92.8 C199.472002,92.8 199.855998,92.7786669 200.24,92.736 L201.648,92.608 L201.648,95.68 C200.879996,95.8080006 200.133337,95.9146662 199.408,96 C198.810664,96.0853338 198.17067,96.1493331 197.488,96.192 C196.80533,96.2346669 196.250669,96.256 195.824,96.256 C193.733323,96.256 192.154672,95.8720038 191.088,95.104 C190.021328,94.3359962 189.253336,93.5040045 188.784,92.608 C187.845329,93.8026726 186.768006,94.7519965 185.552,95.456 C184.335994,96.1600035 182.938675,96.512 181.36,96.512 C178.458652,96.512 176.304007,95.9680054 174.896,94.88 C173.487993,93.7919946 172.784,91.9040134 172.784,89.216 C172.784,88.2773286 172.794667,87.3813376 172.816,86.528 C172.837333,85.6746624 172.890666,84.9280032 172.976,84.288 C173.061334,83.5199962 173.146666,82.8373363 173.232,82.24 L188.08,78.592 C188.037333,77.3546605 187.994667,76.2133386 187.952,75.168 C187.909333,74.1226614 187.866667,73.237337 187.824,72.512 C187.738666,71.6586624 187.674667,70.8906701 187.632,70.208 C187.503999,70.1653331 187.312001,70.1226669 187.056,70.08 C186.842666,70.0373331 186.522669,69.9946669 186.096,69.952 C185.669331,69.9093331 185.157336,69.888 184.56,69.888 C184.175998,69.888 183.813335,69.8986666 183.472,69.92 C183.130665,69.9413334 182.789335,69.9733331 182.448,70.016 C182.319999,70.6133363 182.106668,71.3279958 181.808,72.16 C181.509332,72.9920042 181.040003,73.7813296 180.4,74.528 C179.759997,75.2746704 178.917339,75.914664 177.872,76.448 C176.826661,76.981336 175.493341,77.248 173.872,77.248 L173.872,67.584 C175.23734,67.4559994 176.623993,67.3280006 178.032,67.2 C179.26934,67.1146662 180.591993,67.0293338 182,66.944 C183.408007,66.8586662 184.773327,66.816 186.096,66.816 C188.869347,66.816 191.055992,67.0506643 192.656,67.52 C194.256008,67.9893357 195.471996,68.7999942 196.304,69.952 C197.136004,71.1040058 197.669332,72.6399904 197.904,74.56 C198.138668,76.4800096 198.256,78.869319 198.256,81.728 L198.256,92.8 Z M183.408,93.056 C184.261338,92.8426656 185.082663,92.298671 185.872,91.424 C186.661337,90.549329 187.418663,89.4933395 188.144,88.256 L188.144,81.472 L183.28,82.816 C183.194666,83.4986701 183.130667,84.1919965 183.088,84.896 C183.045333,85.6000035 183.024,86.2933299 183.024,86.976 C183.024,87.8293376 183.034667,88.618663 183.056,89.344 C183.077333,90.069337 183.130666,90.7093306 183.216,91.264 C183.258667,91.9040032 183.322666,92.5013306 183.408,93.056 Z M225.236,103.296 L227.796,103.296 C229.204007,103.296 230.089332,103.157335 230.452,102.88 C230.814668,102.602665 230.996,102.12267 230.996,101.44 L230.996,100.48 L214.548,100.48 C212.49999,100.48 210.772007,100.320002 209.364,100 C207.955993,99.6799984 206.836004,99.1893366 206.004,98.528 C205.171996,97.8666634 204.574668,97.0133386 204.212,95.968 C203.849332,94.9226614 203.668,93.6746739 203.668,92.224 C203.668,91.1146611 203.817332,90.1546707 204.116,89.344 C204.414668,88.5333293 204.787998,87.8506694 205.236,87.296 C205.684002,86.7413306 206.174664,86.293335 206.708,85.952 C207.241336,85.610665 207.742664,85.3546675 208.212,85.184 C206.84666,84.4159962 205.876003,83.3600067 205.3,82.016 C204.723997,80.6719933 204.436,78.9760102 204.436,76.928 C204.436,75.0933242 204.681331,73.5253398 205.172,72.224 C205.662669,70.9226602 206.462661,69.8773373 207.572,69.088 C208.681339,68.2986627 210.131991,67.7226685 211.924,67.36 C213.716009,66.9973315 215.91332,66.816 218.516,66.816 L226.196,66.816 C227.262672,66.816 228.10533,66.7306675 228.724,66.56 C229.34267,66.3893325 229.801332,66.1226685 230.1,65.76 C230.398668,65.3973315 230.58,64.949336 230.644,64.416 C230.708,63.882664 230.74,63.2320038 230.74,62.464 L234.196,62.464 C234.196,64.7680115 233.833337,66.4319949 233.108,67.456 C232.382663,68.4800051 231.33734,69.1839981 229.972,69.568 C231.721342,71.1466746 232.596,73.5999834 232.596,76.928 C232.596,78.8053427 232.350669,80.3839936 231.86,81.664 C231.369331,82.9440064 230.569339,83.9786627 229.46,84.768 C228.350661,85.5573373 226.900009,86.1333315 225.108,86.496 C223.315991,86.8586685 221.11868,87.04 218.516,87.04 C215.742653,87.04 213.438676,86.8480019 211.604,86.464 C211.091997,86.5920006 210.569336,86.7733322 210.036,87.008 C209.502664,87.2426678 209.001336,87.5413315 208.532,87.904 C208.062664,88.2666685 207.678668,88.6826643 207.38,89.152 C207.081332,89.6213357 206.932,90.1546637 206.932,90.752 L225.492,90.752 C229.033351,90.752 231.539993,91.4026602 233.012,92.704 C234.484007,94.0053398 235.22,96.0213197 235.22,98.752 C235.22,100.11734 235.113334,101.290662 234.9,102.272 C234.686666,103.253338 234.313336,104.063997 233.78,104.704 C233.246664,105.344003 232.489338,105.823998 231.508,106.144 C230.526662,106.464002 229.268008,106.624 227.732,106.624 L225.236,106.624 L225.236,103.296 Z M214.932,76.928 C214.932,77.9520051 214.974666,78.8906624 215.06,79.744 C215.145334,80.5973376 215.251999,81.3226637 215.38,81.92 C215.508001,82.645337 215.657332,83.3066637 215.828,83.904 C216.041334,83.9466669 216.275999,83.9893331 216.532,84.032 C216.745334,84.0746669 217.011998,84.1066666 217.332,84.128 C217.652002,84.1493334 218.025331,84.16 218.452,84.16 C218.878669,84.16 219.262665,84.1493334 219.604,84.128 C219.945335,84.1066666 220.222666,84.0746669 220.436,84.032 C220.692001,83.9893331 220.926666,83.9466669 221.14,83.904 C221.268001,83.3066637 221.417332,82.645337 221.588,81.92 C221.673334,81.3226637 221.769333,80.5973376 221.876,79.744 C221.982667,78.8906624 222.036,77.9520051 222.036,76.928 C222.036,75.9466618 221.982667,75.018671 221.876,74.144 C221.769333,73.269329 221.673334,72.5333363 221.588,71.936 C221.417332,71.210663 221.268001,70.5493363 221.14,69.952 L220.372,69.824 C220.158666,69.7813331 219.881335,69.7493334 219.54,69.728 C219.198665,69.7066666 218.836002,69.696 218.452,69.696 C218.025331,69.696 217.652002,69.7066666 217.332,69.728 C217.011998,69.7493334 216.745334,69.7813331 216.532,69.824 C216.275999,69.8666669 216.041334,69.9093331 215.828,69.952 C215.657332,70.5493363 215.508001,71.210663 215.38,71.936 C215.251999,72.5333363 215.145334,73.269329 215.06,74.144 C214.974666,75.018671 214.932,75.9466618 214.932,76.928 Z M250.808,66.816 C253.154678,66.816 255.095992,67.0399978 256.632,67.488 C258.168008,67.9360022 259.405329,68.6506618 260.344,69.632 C261.282671,70.6133382 261.943998,71.903992 262.328,73.504 C262.712002,75.104008 262.904,77.0773216 262.904,79.424 C262.904,80.149337 262.882667,80.778664 262.84,81.312 C262.797333,81.845336 262.754667,82.282665 262.712,82.624 C262.669333,83.0506688 262.626667,83.3706656 262.584,83.584 L246.776,83.584 C246.818667,85.0346739 246.903999,86.3466608 247.032,87.52 C247.160001,88.6933392 247.287999,89.7066624 247.416,90.56 C247.586668,91.5840051 247.757332,92.4799962 247.928,93.248 C248.056001,93.3333338 248.247999,93.3973331 248.504,93.44 C248.717334,93.4826669 249.026665,93.5146666 249.432,93.536 C249.837335,93.5573334 250.359997,93.568 251,93.568 C252.066672,93.568 253.079995,93.4933341 254.04,93.344 C255.000005,93.1946659 255.842663,92.949335 256.568,92.608 C257.293337,92.266665 257.858665,91.7866698 258.264,91.168 C258.669335,90.5493302 258.872,89.7920045 258.872,88.896 L262.328,88.896 C262.328,90.688009 261.933337,92.0959949 261.144,93.12 C260.354663,94.1440051 259.373339,94.922664 258.2,95.456 C257.026661,95.989336 255.75734,96.3199994 254.392,96.448 C253.02666,96.5760006 251.746673,96.64 250.552,96.64 C247.94932,96.64 245.741342,96.373336 243.928,95.84 C242.114658,95.306664 240.642672,94.4533392 239.512,93.28 C238.381328,92.1066608 237.560003,90.5706762 237.048,88.672 C236.535997,86.7733238 236.28,84.4586803 236.28,81.728 C236.28,78.9973197 236.503998,76.6826762 236.952,74.784 C237.400002,72.8853238 238.178661,71.3493392 239.288,70.176 C240.397339,69.0026608 241.879991,68.149336 243.736,67.616 C245.592009,67.082664 247.949319,66.816 250.808,66.816 Z M247.928,70.08 C247.714666,71.0186714 247.522668,72.0426611 247.352,73.152 C247.223999,74.1333382 247.096001,75.2746602 246.968,76.576 C246.839999,77.8773398 246.776,79.2959923 246.776,80.832 L252.984,80.832 C252.898666,79.039991 252.792001,77.4720067 252.664,76.128 C252.535999,74.7839933 252.386668,73.6640045 252.216,72.768 C252.045332,71.701328 251.853334,70.805337 251.64,70.08 C251.511999,70.0373331 251.362668,69.9733338 251.192,69.888 C251.021332,69.8453331 250.818668,69.8026669 250.584,69.76 C250.349332,69.7173331 250.082668,69.696 249.784,69.696 C249.485332,69.696 249.229334,69.7173331 249.016,69.76 C248.802666,69.8026669 248.610668,69.8453331 248.44,69.888 C248.269332,69.9733338 248.098668,70.0373331 247.928,70.08 Z M290.908,68.48 L277.788,92.928 L282.524,92.928 C282.737334,92.2453299 283.046665,91.4560045 283.452,90.56 C283.857335,89.6639955 284.411996,88.8213373 285.116,88.032 C285.820004,87.2426627 286.705328,86.5706694 287.772,86.016 C288.838672,85.4613306 290.139992,85.184 291.676,85.184 L291.676,96 L265.884,96 L265.884,94.848 L279.516,70.336 L274.268,70.336 C274.139999,70.9760032 273.916002,71.6906627 273.596,72.48 C273.275998,73.2693373 272.80667,74.0159965 272.188,74.72 C271.56933,75.4240035 270.758672,76.0106643 269.756,76.48 C268.753328,76.9493357 267.484008,77.184 265.948,77.184 L265.948,67.264 L290.908,67.264 L290.908,68.48 Z M291.136,67.264 L304.512,67.264 L311.872,85.888 L318.528,70.528 L313.408,70.528 L313.408,67.264 L326.72,67.264 L326.72,70.528 L322.24,70.528 L309.44,100.48 C309.055998,101.418671 308.640002,102.26133 308.192,103.008 C307.743998,103.75467 307.232003,104.394664 306.656,104.928 C306.079997,105.461336 305.397337,105.866665 304.608,106.144 C303.818663,106.421335 302.869339,106.56 301.76,106.56 C300.565327,106.56 299.616004,106.357335 298.912,105.952 C298.207996,105.546665 297.664002,105.056003 297.28,104.48 C296.895998,103.903997 296.650667,103.30667 296.544,102.688 C296.437333,102.06933 296.384,101.525336 296.384,101.056 L296.384,99.136 L299.776,99.136 L299.776,101.12 C299.776,101.632003 299.914665,102.122664 300.192,102.592 C300.469335,103.061336 300.991996,103.296 301.76,103.296 C302.912006,103.296 303.79733,102.890671 304.416,102.08 C305.03467,101.269329 305.578664,100.309339 306.048,99.2 L306.752,97.536 L294.336,70.528 L291.136,70.528 L291.136,67.264 Z" id="imagezy"></path>
        </g>
    </g>
</svg>