<?xml version="1.0" encoding="UTF-8"?>
<svg width="229px" height="55px" viewBox="0 0 229 55" version="1.1" xmlns="http://www.w3.org/2000/svg" xmlns:xlink="http://www.w3.org/1999/xlink">
    <!-- Generator: Sketch 46.2 (44496) - http://www.bohemiancoding.com/sketch -->
    <title>imagezy</title>
    <desc>Created with Sketch.</desc>
    <defs></defs>
    <g id="Page-1" stroke="none" stroke-width="1" fill="none" fill-rule="evenodd">
        <g id="imagezy-orange-banner" transform="translate(-90.000000, -61.000000)" fill="#FAFAFA">
            <path d="M90.92,76.776 L94.696,76.776 L104.808,75.24 L104.808,101.736 L108.584,101.736 L108.584,105 L90.92,105 L90.92,101.736 L94.696,101.736 L94.696,79.976 L90.92,79.976 L90.92,76.776 Z M94.696,66.792 C94.696,64.999991 95.0799962,63.666671 95.848,62.792 C96.6160038,61.917329 97.9173242,61.48 99.752,61.48 C101.67201,61.48 102.994663,61.917329 103.72,62.792 C104.445337,63.666671 104.808,64.999991 104.808,66.792 C104.808,68.6266758 104.413337,69.9599958 103.624,70.792 C102.834663,71.6240042 101.544009,72.04 99.752,72.04 C97.9173242,72.04 96.6160038,71.6240042 95.848,70.792 C95.0799962,69.9599958 94.696,68.6266758 94.696,66.792 Z M110.284,77.416 L114.06,77.416 L123.724,75.56 L123.724,79.848 C123.894668,79.5919987 124.203998,79.2293357 124.652,78.76 C125.100002,78.2906643 125.686663,77.8426688 126.412,77.416 C127.137337,76.9893312 128.022661,76.6160016 129.068,76.296 C130.113339,75.9759984 131.339993,75.816 132.748,75.816 C133.558671,75.816 134.390662,75.8799994 135.244,76.008 C136.097338,76.1360006 136.89733,76.3493318 137.644,76.648 C138.39067,76.9466682 139.062664,77.3519974 139.66,77.864 C140.257336,78.3760026 140.683999,79.0373293 140.94,79.848 C141.068001,79.6773325 141.323998,79.3680022 141.708,78.92 C142.092002,78.4719978 142.635996,78.0133357 143.34,77.544 C144.044004,77.0746643 144.929328,76.669335 145.996,76.328 C147.062672,75.986665 148.342659,75.816 149.836,75.816 C150.817338,75.816 151.809328,75.9013325 152.812,76.072 C153.814672,76.2426675 154.731996,76.5519978 155.564,77 C156.396004,77.4480022 157.067997,78.0559962 157.58,78.824 C158.092003,79.5920038 158.348,80.5946605 158.348,81.832 L158.348,101.736 L162.124,101.736 L162.124,105 L148.236,105 L148.236,79.784 L148.044,79.72 C147.958666,79.6773331 147.830668,79.6453334 147.66,79.624 C147.489332,79.6026666 147.233335,79.592 146.892,79.592 C146.166663,79.592 145.49467,79.7839981 144.876,80.168 C144.25733,80.5520019 143.702669,80.9893309 143.212,81.48 C142.721331,81.9706691 142.305335,82.4613309 141.964,82.952 C141.622665,83.4426691 141.388001,83.7946656 141.26,84.008 L141.26,101.736 L145.036,101.736 L145.036,105 L131.148,105 L131.148,79.784 L130.956,79.72 C130.870666,79.6773331 130.742668,79.6453334 130.572,79.624 C130.401332,79.6026666 130.145335,79.592 129.804,79.592 C129.078663,79.592 128.40667,79.7839981 127.788,80.168 C127.16933,80.5520019 126.614669,80.9893309 126.124,81.48 C125.633331,81.9706691 125.217335,82.4613309 124.876,82.952 C124.534665,83.4426691 124.300001,83.7946656 124.172,84.008 L124.172,101.736 L127.948,101.736 L127.948,105 L110.284,105 L110.284,101.736 L114.06,101.736 L114.06,80.616 L110.284,80.616 L110.284,77.416 Z M190.256,101.8 L191.088,101.8 C191.472002,101.8 191.855998,101.778667 192.24,101.736 L193.648,101.608 L193.648,104.68 C192.879996,104.808001 192.133337,104.914666 191.408,105 C190.810664,105.085334 190.17067,105.149333 189.488,105.192 C188.80533,105.234667 188.250669,105.256 187.824,105.256 C185.733323,105.256 184.154672,104.872004 183.088,104.104 C182.021328,103.335996 181.253336,102.504004 180.784,101.608 C179.845329,102.802673 178.768006,103.751996 177.552,104.456 C176.335994,105.160004 174.938675,105.512 173.36,105.512 C170.458652,105.512 168.304007,104.968005 166.896,103.88 C165.487993,102.791995 164.784,100.904013 164.784,98.216 C164.784,97.2773286 164.794667,96.3813376 164.816,95.528 C164.837333,94.6746624 164.890666,93.9280032 164.976,93.288 C165.061334,92.5199962 165.146666,91.8373363 165.232,91.24 L180.08,87.592 C180.037333,86.3546605 179.994667,85.2133386 179.952,84.168 C179.909333,83.1226614 179.866667,82.237337 179.824,81.512 C179.738666,80.6586624 179.674667,79.8906701 179.632,79.208 C179.503999,79.1653331 179.312001,79.1226669 179.056,79.08 C178.842666,79.0373331 178.522669,78.9946669 178.096,78.952 C177.669331,78.9093331 177.157336,78.888 176.56,78.888 C176.175998,78.888 175.813335,78.8986666 175.472,78.92 C175.130665,78.9413334 174.789335,78.9733331 174.448,79.016 C174.319999,79.6133363 174.106668,80.3279958 173.808,81.16 C173.509332,81.9920042 173.040003,82.7813296 172.4,83.528 C171.759997,84.2746704 170.917339,84.914664 169.872,85.448 C168.826661,85.981336 167.493341,86.248 165.872,86.248 L165.872,76.584 C167.23734,76.4559994 168.623993,76.3280006 170.032,76.2 C171.26934,76.1146662 172.591993,76.0293338 174,75.944 C175.408007,75.8586662 176.773327,75.816 178.096,75.816 C180.869347,75.816 183.055992,76.0506643 184.656,76.52 C186.256008,76.9893357 187.471996,77.7999942 188.304,78.952 C189.136004,80.1040058 189.669332,81.6399904 189.904,83.56 C190.138668,85.4800096 190.256,87.869319 190.256,90.728 L190.256,101.8 Z M175.408,102.056 C176.261338,101.842666 177.082663,101.298671 177.872,100.424 C178.661337,99.549329 179.418663,98.4933395 180.144,97.256 L180.144,90.472 L175.28,91.816 C175.194666,92.4986701 175.130667,93.1919965 175.088,93.896 C175.045333,94.6000035 175.024,95.2933299 175.024,95.976 C175.024,96.8293376 175.034667,97.618663 175.056,98.344 C175.077333,99.069337 175.130666,99.7093306 175.216,100.264 C175.258667,100.904003 175.322666,101.501331 175.408,102.056 Z M217.236,112.296 L219.796,112.296 C221.204007,112.296 222.089332,112.157335 222.452,111.88 C222.814668,111.602665 222.996,111.12267 222.996,110.44 L222.996,109.48 L206.548,109.48 C204.49999,109.48 202.772007,109.320002 201.364,109 C199.955993,108.679998 198.836004,108.189337 198.004,107.528 C197.171996,106.866663 196.574668,106.013339 196.212,104.968 C195.849332,103.922661 195.668,102.674674 195.668,101.224 C195.668,100.114661 195.817332,99.1546707 196.116,98.344 C196.414668,97.5333293 196.787998,96.8506694 197.236,96.296 C197.684002,95.7413306 198.174664,95.293335 198.708,94.952 C199.241336,94.610665 199.742664,94.3546675 200.212,94.184 C198.84666,93.4159962 197.876003,92.3600067 197.3,91.016 C196.723997,89.6719933 196.436,87.9760102 196.436,85.928 C196.436,84.0933242 196.681331,82.5253398 197.172,81.224 C197.662669,79.9226602 198.462661,78.8773373 199.572,78.088 C200.681339,77.2986627 202.131991,76.7226685 203.924,76.36 C205.716009,75.9973315 207.91332,75.816 210.516,75.816 L218.196,75.816 C219.262672,75.816 220.10533,75.7306675 220.724,75.56 C221.34267,75.3893325 221.801332,75.1226685 222.1,74.76 C222.398668,74.3973315 222.58,73.949336 222.644,73.416 C222.708,72.882664 222.74,72.2320038 222.74,71.464 L226.196,71.464 C226.196,73.7680115 225.833337,75.4319949 225.108,76.456 C224.382663,77.4800051 223.33734,78.1839981 221.972,78.568 C223.721342,80.1466746 224.596,82.5999834 224.596,85.928 C224.596,87.8053427 224.350669,89.3839936 223.86,90.664 C223.369331,91.9440064 222.569339,92.9786627 221.46,93.768 C220.350661,94.5573373 218.900009,95.1333315 217.108,95.496 C215.315991,95.8586685 213.11868,96.04 210.516,96.04 C207.742653,96.04 205.438676,95.8480019 203.604,95.464 C203.091997,95.5920006 202.569336,95.7733322 202.036,96.008 C201.502664,96.2426678 201.001336,96.5413315 200.532,96.904 C200.062664,97.2666685 199.678668,97.6826643 199.38,98.152 C199.081332,98.6213357 198.932,99.1546637 198.932,99.752 L217.492,99.752 C221.033351,99.752 223.539993,100.40266 225.012,101.704 C226.484007,103.00534 227.22,105.02132 227.22,107.752 C227.22,109.11734 227.113334,110.290662 226.9,111.272 C226.686666,112.253338 226.313336,113.063997 225.78,113.704 C225.246664,114.344003 224.489338,114.823998 223.508,115.144 C222.526662,115.464002 221.268008,115.624 219.732,115.624 L217.236,115.624 L217.236,112.296 Z M206.932,85.928 C206.932,86.9520051 206.974666,87.8906624 207.06,88.744 C207.145334,89.5973376 207.251999,90.3226637 207.38,90.92 C207.508001,91.645337 207.657332,92.3066637 207.828,92.904 C208.041334,92.9466669 208.275999,92.9893331 208.532,93.032 C208.745334,93.0746669 209.011998,93.1066666 209.332,93.128 C209.652002,93.1493334 210.025331,93.16 210.452,93.16 C210.878669,93.16 211.262665,93.1493334 211.604,93.128 C211.945335,93.1066666 212.222666,93.0746669 212.436,93.032 C212.692001,92.9893331 212.926666,92.9466669 213.14,92.904 C213.268001,92.3066637 213.417332,91.645337 213.588,90.92 C213.673334,90.3226637 213.769333,89.5973376 213.876,88.744 C213.982667,87.8906624 214.036,86.9520051 214.036,85.928 C214.036,84.9466618 213.982667,84.018671 213.876,83.144 C213.769333,82.269329 213.673334,81.5333363 213.588,80.936 C213.417332,80.210663 213.268001,79.5493363 213.14,78.952 L212.372,78.824 C212.158666,78.7813331 211.881335,78.7493334 211.54,78.728 C211.198665,78.7066666 210.836002,78.696 210.452,78.696 C210.025331,78.696 209.652002,78.7066666 209.332,78.728 C209.011998,78.7493334 208.745334,78.7813331 208.532,78.824 C208.275999,78.8666669 208.041334,78.9093331 207.828,78.952 C207.657332,79.5493363 207.508001,80.210663 207.38,80.936 C207.251999,81.5333363 207.145334,82.269329 207.06,83.144 C206.974666,84.018671 206.932,84.9466618 206.932,85.928 Z M242.808,75.816 C245.154678,75.816 247.095992,76.0399978 248.632,76.488 C250.168008,76.9360022 251.405329,77.6506618 252.344,78.632 C253.282671,79.6133382 253.943998,80.903992 254.328,82.504 C254.712002,84.104008 254.904,86.0773216 254.904,88.424 C254.904,89.149337 254.882667,89.778664 254.84,90.312 C254.797333,90.845336 254.754667,91.282665 254.712,91.624 C254.669333,92.0506688 254.626667,92.3706656 254.584,92.584 L238.776,92.584 C238.818667,94.0346739 238.903999,95.3466608 239.032,96.52 C239.160001,97.6933392 239.287999,98.7066624 239.416,99.56 C239.586668,100.584005 239.757332,101.479996 239.928,102.248 C240.056001,102.333334 240.247999,102.397333 240.504,102.44 C240.717334,102.482667 241.026665,102.514667 241.432,102.536 C241.837335,102.557333 242.359997,102.568 243,102.568 C244.066672,102.568 245.079995,102.493334 246.04,102.344 C247.000005,102.194666 247.842663,101.949335 248.568,101.608 C249.293337,101.266665 249.858665,100.78667 250.264,100.168 C250.669335,99.5493302 250.872,98.7920045 250.872,97.896 L254.328,97.896 C254.328,99.688009 253.933337,101.095995 253.144,102.12 C252.354663,103.144005 251.373339,103.922664 250.2,104.456 C249.026661,104.989336 247.75734,105.319999 246.392,105.448 C245.02666,105.576001 243.746673,105.64 242.552,105.64 C239.94932,105.64 237.741342,105.373336 235.928,104.84 C234.114658,104.306664 232.642672,103.453339 231.512,102.28 C230.381328,101.106661 229.560003,99.5706762 229.048,97.672 C228.535997,95.7733238 228.28,93.4586803 228.28,90.728 C228.28,87.9973197 228.503998,85.6826762 228.952,83.784 C229.400002,81.8853238 230.178661,80.3493392 231.288,79.176 C232.397339,78.0026608 233.879991,77.149336 235.736,76.616 C237.592009,76.082664 239.949319,75.816 242.808,75.816 Z M239.928,79.08 C239.714666,80.0186714 239.522668,81.0426611 239.352,82.152 C239.223999,83.1333382 239.096001,84.2746602 238.968,85.576 C238.839999,86.8773398 238.776,88.2959923 238.776,89.832 L244.984,89.832 C244.898666,88.039991 244.792001,86.4720067 244.664,85.128 C244.535999,83.7839933 244.386668,82.6640045 244.216,81.768 C244.045332,80.701328 243.853334,79.805337 243.64,79.08 C243.511999,79.0373331 243.362668,78.9733338 243.192,78.888 C243.021332,78.8453331 242.818668,78.8026669 242.584,78.76 C242.349332,78.7173331 242.082668,78.696 241.784,78.696 C241.485332,78.696 241.229334,78.7173331 241.016,78.76 C240.802666,78.8026669 240.610668,78.8453331 240.44,78.888 C240.269332,78.9733338 240.098668,79.0373331 239.928,79.08 Z M282.908,77.48 L269.788,101.928 L274.524,101.928 C274.737334,101.24533 275.046665,100.456004 275.452,99.56 C275.857335,98.6639955 276.411996,97.8213373 277.116,97.032 C277.820004,96.2426627 278.705328,95.5706694 279.772,95.016 C280.838672,94.4613306 282.139992,94.184 283.676,94.184 L283.676,105 L257.884,105 L257.884,103.848 L271.516,79.336 L266.268,79.336 C266.139999,79.9760032 265.916002,80.6906627 265.596,81.48 C265.275998,82.2693373 264.80667,83.0159965 264.188,83.72 C263.56933,84.4240035 262.758672,85.0106643 261.756,85.48 C260.753328,85.9493357 259.484008,86.184 257.948,86.184 L257.948,76.264 L282.908,76.264 L282.908,77.48 Z M283.136,76.264 L296.512,76.264 L303.872,94.888 L310.528,79.528 L305.408,79.528 L305.408,76.264 L318.72,76.264 L318.72,79.528 L314.24,79.528 L301.44,109.48 C301.055998,110.418671 300.640002,111.26133 300.192,112.008 C299.743998,112.75467 299.232003,113.394664 298.656,113.928 C298.079997,114.461336 297.397337,114.866665 296.608,115.144 C295.818663,115.421335 294.869339,115.56 293.76,115.56 C292.565327,115.56 291.616004,115.357335 290.912,114.952 C290.207996,114.546665 289.664002,114.056003 289.28,113.48 C288.895998,112.903997 288.650667,112.30667 288.544,111.688 C288.437333,111.06933 288.384,110.525336 288.384,110.056 L288.384,108.136 L291.776,108.136 L291.776,110.12 C291.776,110.632003 291.914665,111.122664 292.192,111.592 C292.469335,112.061336 292.991996,112.296 293.76,112.296 C294.912006,112.296 295.79733,111.890671 296.416,111.08 C297.03467,110.269329 297.578664,109.309339 298.048,108.2 L298.752,106.536 L286.336,79.528 L283.136,79.528 L283.136,76.264 Z" id="imagezy"></path>
        </g>
    </g>
</svg>